# xmcd CD database file
#
# Track frame offsets:
#	150
#	17875
#	33105
#	45945
#	54870
#	70907
#	84050
#	91355
#	103617
#	113317
#	131540
#	143632
#	152607
#	167872
#	176550
#	194697
#
# Disc length: 2830 seconds
#
# Revision: 0
# Processed by: cddbd v1.5PL3 Copyright (c) Steve Scherf et al.
# Submitted via: CDex 1.51
#
DISCID=bd0b0c10
DTITLE=THE ROOSTERS  - unreleased
DYEAR=1990
DGENRE=Rock
TTITLE0=SATURDAY NIGHT(RE-MIX '90)
TTITLE1=BYE BYE MY GIRL
TTITLE2=I'M TALKIN ABOUT YOU
TTITLE3=BYE BYE JOHNNY
TTITLE4=TELL ME YOUR NAME
TTITLE5=SITTIN' ON THE FENCE
TTITLE6=HIPPY HIPPY SHAKE
TTITLE7=BABY I LOVE YOU
TTITLE8=LITTLE BY LITTLE
TTITLE9=I WANT SOMETHING ELSE TO ME
TTITLE10=UNDER MY THUMB
TTITLE11=ALL RIGHT ALL RIGHT
TTITLE12=ONE MORE KISS(LIVE)
TTITLE13=恋をしようよ(LIVE)
TTITLE14=DAN DAN (LIVE)
TTITLE15=SATURDAY NIGHT(EXTENDED VERSION)
EXTD=YEAR: 1990
EXTT0=
EXTT1=
EXTT2=
EXTT3=
EXTT4=
EXTT5=
EXTT6=
EXTT7=
EXTT8=
EXTT9=
EXTT10=
EXTT11=
EXTT12=
EXTT13=
EXTT14=
EXTT15=
PLAYORDER=
